<svg width="227" height="65" viewBox="0 0 227 65" fill="none" xmlns="http://www.w3.org/2000/svg">
<path d="M94.328 29.576C94.328 30.552 94.104 31.448 93.656 32.264C93.208 33.064 92.52 33.712 91.592 34.208C90.664 34.704 89.512 34.952 88.136 34.952H85.592V41H81.488V24.152H88.136C89.48 24.152 90.616 24.384 91.544 24.848C92.472 25.312 93.168 25.952 93.632 26.768C94.096 27.584 94.328 28.52 94.328 29.576ZM87.824 31.688C88.608 31.688 89.192 31.504 89.576 31.136C89.96 30.768 90.152 30.248 90.152 29.576C90.152 28.904 89.96 28.384 89.576 28.016C89.192 27.648 88.608 27.464 87.824 27.464H85.592V31.688H87.824ZM100.497 24.152V34.232C100.497 35.24 100.745 36.016 101.241 36.56C101.737 37.104 102.465 37.376 103.425 37.376C104.385 37.376 105.121 37.104 105.633 36.56C106.145 36.016 106.401 35.24 106.401 34.232V24.152H110.505V34.208C110.505 35.712 110.185 36.984 109.545 38.024C108.905 39.064 108.041 39.848 106.953 40.376C105.881 40.904 104.681 41.168 103.353 41.168C102.025 41.168 100.833 40.912 99.7766 40.4C98.7366 39.872 97.9126 39.088 97.3046 38.048C96.6966 36.992 96.3926 35.712 96.3926 34.208V24.152H100.497ZM121.978 41L118.474 34.64H117.49V41H113.386V24.152H120.274C121.602 24.152 122.73 24.384 123.658 24.848C124.602 25.312 125.306 25.952 125.77 26.768C126.234 27.568 126.466 28.464 126.466 29.456C126.466 30.576 126.146 31.576 125.506 32.456C124.882 33.336 123.954 33.96 122.722 34.328L126.61 41H121.978ZM117.49 31.736H120.034C120.786 31.736 121.346 31.552 121.714 31.184C122.098 30.816 122.29 30.296 122.29 29.624C122.29 28.984 122.098 28.48 121.714 28.112C121.346 27.744 120.786 27.56 120.034 27.56H117.49V31.736ZM133.147 27.44V30.848H138.643V34.016H133.147V37.712H139.363V41H129.043V24.152H139.363V27.44H133.147Z" fill="#525252"/>
<path d="M165.211 24.152L160.819 41H155.851L153.163 29.912L150.379 41H145.411L141.139 24.152H145.531L147.955 36.416L150.955 24.152H155.467L158.347 36.416L160.795 24.152H165.211ZM177.757 38.024H171.469L170.461 41H166.165L172.261 24.152H177.013L183.109 41H178.765L177.757 38.024ZM176.701 34.856L174.613 28.688L172.549 34.856H176.701ZM197.085 24.152V27.44H192.621V41H188.517V27.44H184.053V24.152H197.085ZM203.248 27.44V30.848H208.744V34.016H203.248V37.712H209.464V41H199.144V24.152H209.464V27.44H203.248ZM220.721 41L217.217 34.64H216.233V41H212.129V24.152H219.017C220.345 24.152 221.473 24.384 222.401 24.848C223.345 25.312 224.049 25.952 224.513 26.768C224.977 27.568 225.209 28.464 225.209 29.456C225.209 30.576 224.889 31.576 224.249 32.456C223.625 33.336 222.697 33.96 221.465 34.328L225.353 41H220.721ZM216.233 31.736H218.777C219.529 31.736 220.089 31.552 220.457 31.184C220.841 30.816 221.033 30.296 221.033 29.624C221.033 28.984 220.841 28.48 220.457 28.112C220.089 27.744 219.529 27.56 218.777 27.56H216.233V31.736Z" fill="#0094FF"/>
<path d="M32.5 65C14.5498 65 0 50.4502 0 32.5C0 14.5498 14.5498 0 32.5 0C50.4502 0 65 14.5498 65 32.5C65 50.4502 50.4502 65 32.5 65ZM46.9909 35.4798C45.8717 30.55 42.3922 25.1144 42.3922 25.1144C46.4019 36.0567 44.8581 44.3097 43.7958 48.9917C43.7958 48.9917 42.3942 54.2283 45.4106 49.8652C49.1725 44.4052 46.9909 35.4798 46.9909 35.4798ZM37.0866 16.0672C39.1727 23.4975 40.1172 29.8045 40.4117 35.0634C40.9297 44.0253 39.5627 49.922 38.7136 53.0359C38.4414 54.0495 39.5748 54.8031 40.235 54.0373L40.2472 54.0252C41.8966 52.1381 42.6766 47.7181 43.0422 43.8384L43.1478 42.5648C43.4891 37.893 43.29 33.1784 42.1931 28.6609C40.1761 20.3247 37.0866 16.0672 37.0866 16.0672ZM33.3491 29.1566C32.8412 16.9528 31.9211 6.11609 31.9211 6.11609C31.9211 6.11609 30.9908 16.4105 30.483 28.342C30.4017 30.2778 30.3286 32.2461 30.2697 34.2266C30.1884 37.1048 30.1519 39.9953 30.1519 42.7883C30.1641 47.7527 30.355 52.4103 30.8019 56.1255C30.9786 57.5981 32.888 57.5981 33.0647 56.1255C33.3714 53.5905 33.5481 50.4766 33.6192 47.0559C33.6852 43.3578 33.6696 39.6587 33.5725 35.9613C33.5116 33.6964 33.4425 31.4092 33.3491 29.1566ZM19.0917 43.8628C18.814 41.5621 18.7507 39.2405 18.9028 36.9281C19.0206 35.1122 19.2806 33.1662 19.7295 31.0903C20.1419 29.1911 20.7066 27.1984 21.4744 25.1002C21.4744 25.1002 19.0206 28.9331 17.5825 33.0708C17.2981 33.863 17.0645 34.6755 16.8858 35.4656C16.8858 35.4656 16.4267 37.5416 16.3577 40.3122C16.3089 42.2338 16.4613 44.5088 17.0747 46.6558C17.3847 47.7797 17.8496 48.8551 18.4559 49.8509C18.4559 49.8509 21.4744 54.3441 20.0708 48.9775C19.6341 47.2949 19.3071 45.5857 19.0917 43.8608V43.8628ZM23.3959 41.4558C23.2975 39.0261 23.3368 36.5929 23.5138 34.1677C23.6363 32.3771 23.8253 30.5918 24.0805 28.8153C24.6086 24.9945 25.4719 20.7614 26.782 16.0672C26.782 16.0672 23.6783 20.3247 21.6633 28.6609C21.5556 29.1078 21.4602 29.5567 21.3667 29.9934C21.0011 31.8094 20.7655 33.6497 20.6477 35.5123C20.5055 37.8483 20.542 40.2045 20.7086 42.5527L20.8142 43.8384C21.1798 47.7181 21.9456 52.1381 23.6072 54.0252L23.6194 54.0373C24.2795 54.793 25.4231 54.0373 25.1428 53.0359C24.5273 50.7366 23.6194 46.9158 23.3959 41.4558ZM28.5492 41.9148C28.4827 39.2111 28.4705 36.5063 28.5127 33.802C28.537 32.0227 28.5837 30.1458 28.667 28.1775C28.8681 23.0953 29.8228 15.7483 30.483 9.5225C30.483 9.5225 27.2289 16.2561 25.742 28.403C25.543 30.0645 25.3541 31.8561 25.2119 33.7919L25.1062 35.23C25.1062 35.23 24.9295 37.7995 24.9986 41.2669C25.0941 45.7234 25.5877 51.6669 27.428 55.5588C27.4889 55.6766 27.558 55.7822 27.6514 55.8634L27.6636 55.8777C28.3603 56.5378 29.4328 55.9122 29.3394 54.8864C28.9066 50.5745 28.6424 46.2474 28.5472 41.9148H28.5492ZM35.293 41.9148C35.1406 48.2361 34.7405 52.6581 34.5048 54.8864C34.4094 55.9122 35.4819 56.5378 36.1786 55.8777L36.1908 55.8655C36.2845 55.7787 36.3604 55.6746 36.4142 55.5588C38.2545 51.6669 38.7502 45.7234 38.8436 41.2669C38.9147 37.7995 38.738 35.23 38.738 35.23L38.6303 33.7919C38.4968 31.9917 38.3207 30.1949 38.1022 28.403C36.6153 16.2561 33.3592 9.5225 33.3592 9.5225C34.0214 15.7483 34.9761 23.0953 35.1752 28.1775C35.2584 30.1478 35.3052 32.0227 35.3295 33.8041C35.3717 36.5076 35.3595 39.2118 35.293 41.9148Z" fill="#0094FF"/>
</svg>
